<?xml version="1.0" standalone="no"?>
<!DOCTYPE svg PUBLIC "-//W3C//DTD SVG 20010904//EN"
 "http://www.w3.org/TR/2001/REC-SVG-20010904/DTD/svg10.dtd">
<svg version="1.0" xmlns="http://www.w3.org/2000/svg"
 width="512.000000pt" height="512.000000pt" viewBox="0 0 512.000000 512.000000"
 preserveAspectRatio="xMidYMid meet">
<metadata>
Created by potrace 1.11, written by Peter Selinger 2001-2013
</metadata>
<g transform="translate(0.000000,512.000000) scale(0.100000,-0.100000)"
fill="#000000" stroke="none">
<path d="M1019 3717 c-28 -15 -54 -40 -73 -71 -41 -66 -39 -129 7 -266 19 -58
167 -501 327 -985 161 -484 303 -899 317 -923 50 -87 162 -141 265 -128 84 12
158 62 202 140 13 22 81 226 150 451 70 226 169 548 221 716 52 168 102 329
111 358 8 30 19 50 24 45 4 -5 33 -90 63 -189 284 -929 421 -1353 450 -1398
57 -86 166 -136 264 -121 63 9 143 61 180 116 17 26 48 98 68 160 20 62 54
163 75 223 140 403 550 1660 550 1688 0 157 -160 256 -300 185 -75 -39 -60 -1
-228 -573 -39 -132 -101 -341 -138 -465 -36 -124 -77 -265 -91 -315 -14 -49
-51 -180 -84 -289 -32 -110 -59 -205 -59 -213 0 -7 -4 -13 -8 -13 -10 0 -33
74 -322 1040 -140 468 -220 720 -238 750 -54 87 -182 125 -277 81 -47 -22 -99
-74 -115 -116 -12 -30 -64 -201 -360 -1185 -88 -294 -163 -542 -166 -550 -9
-24 -14 -9 -160 485 -74 253 -150 512 -169 575 -19 63 -74 252 -124 418 -95
324 -103 342 -176 377 -50 23 -133 19 -186 -8z"/>
</g>
</svg>
